<mxfile host="app.diagrams.net" modified="2022-12-21T08:46:23.482Z" agent="5.0 (Windows)" version="20.7.4" etag="VVRpwSQtorbdGgv1pjHR" type="github">
  <diagram id="Xfj5n7e3JJY6A1mSw3fe" name="Page-1">
    <mxGraphModel dx="1382" dy="718" grid="1" gridSize="10" guides="1" tooltips="1" connect="1" arrows="1" fold="1" page="1" pageScale="1" pageWidth="827" pageHeight="1169" math="0" shadow="0">
      <root>
        <mxCell id="0" />
        <mxCell id="1" parent="0" />
        <mxCell id="DxF82iQ1Xe6bMLV_p6Q5-1" value="&lt;font face=&quot;greekC&quot;&gt;S&lt;/font&gt;" style="ellipse;whiteSpace=wrap;html=1;aspect=fixed;" vertex="1" parent="1">
          <mxGeometry x="210" y="340" width="80" height="80" as="geometry" />
        </mxCell>
        <mxCell id="DxF82iQ1Xe6bMLV_p6Q5-9" value="actual position" style="edgeStyle=orthogonalEdgeStyle;rounded=0;orthogonalLoop=1;jettySize=auto;html=1;exitX=0;exitY=0.5;exitDx=0;exitDy=0;entryX=0.5;entryY=1;entryDx=0;entryDy=0;" edge="1" parent="1" source="DxF82iQ1Xe6bMLV_p6Q5-5" target="DxF82iQ1Xe6bMLV_p6Q5-1">
          <mxGeometry relative="1" as="geometry" />
        </mxCell>
        <mxCell id="DxF82iQ1Xe6bMLV_p6Q5-5" value="formation position determination" style="rounded=1;whiteSpace=wrap;html=1;" vertex="1" parent="1">
          <mxGeometry x="410" y="470" width="120" height="60" as="geometry" />
        </mxCell>
        <mxCell id="DxF82iQ1Xe6bMLV_p6Q5-11" value="cosmosFlight" style="rounded=1;whiteSpace=wrap;html=1;" vertex="1" parent="1">
          <mxGeometry x="410" y="250" width="120" height="60" as="geometry" />
        </mxCell>
        <mxCell id="DxF82iQ1Xe6bMLV_p6Q5-12" value="position error" style="edgeStyle=orthogonalEdgeStyle;rounded=0;orthogonalLoop=1;jettySize=auto;html=1;exitX=0.5;exitY=0;exitDx=0;exitDy=0;entryX=0;entryY=0.5;entryDx=0;entryDy=0;" edge="1" parent="1" source="DxF82iQ1Xe6bMLV_p6Q5-1" target="DxF82iQ1Xe6bMLV_p6Q5-11">
          <mxGeometry relative="1" as="geometry">
            <mxPoint x="420" y="510" as="sourcePoint" />
            <mxPoint x="260" y="430" as="targetPoint" />
          </mxGeometry>
        </mxCell>
        <mxCell id="DxF82iQ1Xe6bMLV_p6Q5-14" value="satellite attitude control system" style="rounded=1;whiteSpace=wrap;html=1;" vertex="1" parent="1">
          <mxGeometry x="640" y="370" width="120" height="60" as="geometry" />
        </mxCell>
        <mxCell id="DxF82iQ1Xe6bMLV_p6Q5-16" value="Euler angles" style="edgeStyle=orthogonalEdgeStyle;rounded=0;orthogonalLoop=1;jettySize=auto;html=1;exitX=1;exitY=0.5;exitDx=0;exitDy=0;entryX=0.5;entryY=0;entryDx=0;entryDy=0;" edge="1" parent="1" source="DxF82iQ1Xe6bMLV_p6Q5-11" target="DxF82iQ1Xe6bMLV_p6Q5-14">
          <mxGeometry relative="1" as="geometry">
            <mxPoint x="260" y="350" as="sourcePoint" />
            <mxPoint x="420" y="290" as="targetPoint" />
          </mxGeometry>
        </mxCell>
        <mxCell id="DxF82iQ1Xe6bMLV_p6Q5-18" value="specified position" style="edgeStyle=orthogonalEdgeStyle;rounded=0;orthogonalLoop=1;jettySize=auto;html=1;entryX=0;entryY=0.5;entryDx=0;entryDy=0;" edge="1" parent="1" target="DxF82iQ1Xe6bMLV_p6Q5-1">
          <mxGeometry relative="1" as="geometry">
            <mxPoint x="80" y="380" as="sourcePoint" />
            <mxPoint y="290" as="targetPoint" />
          </mxGeometry>
        </mxCell>
      </root>
    </mxGraphModel>
  </diagram>
</mxfile>
